<?xml version="1.0" standalone="no"?><!DOCTYPE svg PUBLIC "-//W3C//DTD SVG 1.1//EN" "http://www.w3.org/Graphics/SVG/1.1/DTD/svg11.dtd"><svg class="icon" width="200px" height="200.00px" viewBox="0 0 1024 1024" version="1.1" xmlns="http://www.w3.org/2000/svg"><path fill="#333333" d="M256.25 880.89a26.588 26.588 0 0 1-26.557-26.562v-269.89H174.52a26.69 26.69 0 0 1-8.187-1.296c-5.77-1.868-20.51-8.821-32.455-32.814-11.464-23.004-5.852-44.221 2.437-55.398a26.15 26.15 0 0 1 2.555-2.965L493.71 137.12a26.409 26.409 0 0 1 18.78-7.778c7.081 0 13.737 2.755 18.75 7.747L632.32 237.793a26.593 26.593 0 0 1 0.067 37.56 26.404 26.404 0 0 1-18.816 7.814 26.399 26.399 0 0 1-18.75-7.747l-82.299-81.992-337.879 337.88h81.608a26.593 26.593 0 0 1 26.562 26.562v269.89h460.068V557.87a26.593 26.593 0 0 1 26.563-26.562h68.47L712.888 406.764a26.726 26.726 0 0 1-7.813-18.816V279.45c0-14.644 11.914-26.563 26.563-26.563S758.2 264.801 758.2 279.45v97.474l126.47 125.978a26.58 26.58 0 0 1 4.029 5.15c2.422 4.04 13.962 25.257 3.799 47.647-10.22 22.544-33.925 27.587-38.574 28.365a26.557 26.557 0 0 1-4.414 0.369h-53.504v269.89a26.588 26.588 0 0 1-26.547 26.568H256.251z"  /><path fill="#333333" d="M582.39 871.552a26.593 26.593 0 0 1-26.568-26.563V669.015h-87.654v175.974c-0.185 14.388-12.099 26.148-26.558 26.148-14.858-0.184-26.378-11.704-26.562-26.224V667.31c0-28.354 23.065-51.425 51.42-51.425h91.044c28.36 0 51.43 23.07 51.43 51.425v177.674a26.593 26.593 0 0 1-26.552 26.568z"  /></svg>