<?xml version="1.0" standalone="no"?><!DOCTYPE svg PUBLIC "-//W3C//DTD SVG 1.1//EN" "http://www.w3.org/Graphics/SVG/1.1/DTD/svg11.dtd"><svg class="icon" width="200px" height="200.00px" viewBox="0 0 1024 1024" version="1.1" xmlns="http://www.w3.org/2000/svg"><path d="M778.5 750.9h-579c-24.1 0-43.7-19.6-43.7-43.7V370.7h622.7v380.2z" fill="#FFE91A" /><path d="M778.5 758.9h-579c-28.5 0-51.7-23.2-51.7-51.7V370.7c0-4.4 3.6-8 8-8h622.7c4.4 0 8 3.6 8 8v380.2c0 4.5-3.5 8-8 8zM163.8 378.7v328.5c0 19.7 16 35.7 35.7 35.7h571V378.7H163.8z" fill="#4F0F00" /><path d="M362.1 468.3m-22.9 0a22.9 22.9 0 1 0 45.8 0 22.9 22.9 0 1 0-45.8 0Z" fill="#FFC41D" /><path d="M362.1 499.3c-17.1 0-30.9-13.9-30.9-30.9s13.9-30.9 30.9-30.9 30.9 13.9 30.9 30.9-13.8 30.9-30.9 30.9z m0-45.9c-8.2 0-14.9 6.7-14.9 14.9s6.7 14.9 14.9 14.9 14.9-6.7 14.9-14.9-6.7-14.9-14.9-14.9z" fill="#4F0F00" /><path d="M461 468.3m-22.9 0a22.9 22.9 0 1 0 45.8 0 22.9 22.9 0 1 0-45.8 0Z" fill="#FFC41D" /><path d="M461 499.3c-17.1 0-30.9-13.9-30.9-30.9s13.9-30.9 30.9-30.9 30.9 13.9 30.9 30.9-13.8 30.9-30.9 30.9z m0-45.9c-8.2 0-14.9 6.7-14.9 14.9s6.7 14.9 14.9 14.9 14.9-6.7 14.9-14.9-6.6-14.9-14.9-14.9z" fill="#4F0F00" /><path d="M560 468.3m-22.9 0a22.9 22.9 0 1 0 45.8 0 22.9 22.9 0 1 0-45.8 0Z" fill="#FFC41D" /><path d="M560 499.3c-17.1 0-30.9-13.9-30.9-30.9s13.9-30.9 30.9-30.9c17.1 0 30.9 13.9 30.9 30.9s-13.8 30.9-30.9 30.9z m0-45.9c-8.2 0-14.9 6.7-14.9 14.9s6.7 14.9 14.9 14.9 14.9-6.7 14.9-14.9-6.7-14.9-14.9-14.9z" fill="#4F0F00" /><path d="M659 468.3m-22.9 0a22.9 22.9 0 1 0 45.8 0 22.9 22.9 0 1 0-45.8 0Z" fill="#FFC41D" /><path d="M659 499.3c-17.1 0-30.9-13.9-30.9-30.9s13.9-30.9 30.9-30.9c17.1 0 30.9 13.9 30.9 30.9S676 499.3 659 499.3z m0-45.9c-8.2 0-14.9 6.7-14.9 14.9s6.7 14.9 14.9 14.9 14.9-6.7 14.9-14.9-6.7-14.9-14.9-14.9z" fill="#4F0F00" /><path d="M272 575m-22.9 0a22.9 22.9 0 1 0 45.8 0 22.9 22.9 0 1 0-45.8 0Z" fill="#FFC41D" /><path d="M272 606c-17.1 0-30.9-13.9-30.9-30.9 0-17.1 13.9-30.9 30.9-30.9s31 13.8 31 30.8c0 17.1-13.9 31-31 31z m0-45.9c-8.2 0-14.9 6.7-14.9 14.9s6.7 14.9 14.9 14.9 15-6.6 15-14.9c0-8.2-6.7-14.9-15-14.9z" fill="#4F0F00" /><path d="M371 575m-22.9 0a22.9 22.9 0 1 0 45.8 0 22.9 22.9 0 1 0-45.8 0Z" fill="#FFC41D" /><path d="M371 606c-17.1 0-30.9-13.9-30.9-30.9 0-17.1 13.9-30.9 30.9-30.9s30.9 13.9 30.9 30.9S388.1 606 371 606z m0-45.9c-8.2 0-14.9 6.7-14.9 14.9s6.7 14.9 14.9 14.9 14.9-6.7 14.9-14.9-6.7-14.9-14.9-14.9z" fill="#4F0F00" /><path d="M469.9 575m-22.9 0a22.9 22.9 0 1 0 45.8 0 22.9 22.9 0 1 0-45.8 0Z" fill="#FFC41D" /><path d="M469.9 606c-17.1 0-30.9-13.9-30.9-30.9 0-17.1 13.9-30.9 30.9-30.9s30.9 13.9 30.9 30.9c0.1 17-13.8 30.9-30.9 30.9z m0-45.9c-8.2 0-14.9 6.7-14.9 14.9s6.7 14.9 14.9 14.9 14.9-6.7 14.9-14.9c0.1-8.2-6.6-14.9-14.9-14.9z" fill="#4F0F00" /><path d="M568.9 575m-22.9 0a22.9 22.9 0 1 0 45.8 0 22.9 22.9 0 1 0-45.8 0Z" fill="#FFC41D" /><path d="M568.9 606c-17.1 0-30.9-13.9-30.9-30.9 0-17.1 13.9-30.9 30.9-30.9 17.1 0 30.9 13.9 30.9 30.9S586 606 568.9 606z m0-45.9c-8.2 0-14.9 6.7-14.9 14.9s6.7 14.9 14.9 14.9 14.9-6.7 14.9-14.9-6.7-14.9-14.9-14.9z" fill="#4F0F00" /><path d="M272 681.8m-22.9 0a22.9 22.9 0 1 0 45.8 0 22.9 22.9 0 1 0-45.8 0Z" fill="#FFC41D" /><path d="M272 712.7c-17.1 0-30.9-13.9-30.9-30.9 0-17.1 13.9-30.9 30.9-30.9s30.9 13.9 30.9 30.9c0.1 17-13.8 30.9-30.9 30.9z m0-45.9c-8.2 0-14.9 6.7-14.9 14.9s6.7 14.9 14.9 14.9 15-6.6 15-14.8c0-8.3-6.7-15-15-15z" fill="#4F0F00" /><path d="M371 681.8m-22.9 0a22.9 22.9 0 1 0 45.8 0 22.9 22.9 0 1 0-45.8 0Z" fill="#FFC41D" /><path d="M371 712.7c-17.1 0-30.9-13.9-30.9-30.9 0-17.1 13.9-30.9 30.9-30.9s30.9 13.9 30.9 30.9-13.8 30.9-30.9 30.9z m0-45.9c-8.2 0-14.9 6.7-14.9 14.9s6.7 14.9 14.9 14.9 14.9-6.7 14.9-14.9-6.7-14.9-14.9-14.9z" fill="#4F0F00" /><path d="M469.9 681.8m-22.9 0a22.9 22.9 0 1 0 45.8 0 22.9 22.9 0 1 0-45.8 0Z" fill="#FFC41D" /><path d="M469.9 712.7c-17.1 0-30.9-13.9-30.9-30.9 0-17.1 13.9-30.9 30.9-30.9s30.9 13.9 30.9 30.9c0.1 17-13.8 30.9-30.9 30.9z m0-45.9c-8.2 0-14.9 6.7-14.9 14.9s6.7 14.9 14.9 14.9 14.9-6.7 14.9-14.9c0.1-8.2-6.6-14.9-14.9-14.9z" fill="#4F0F00" /><path d="M734.8 240.1H199.5c-24.1 0-43.7 19.6-43.7 43.7v87.4h622.7v-87.4c0-24.1-19.5-43.7-43.7-43.7z" fill="#FFC41D" /><path d="M778.5 379.2H155.8c-4.4 0-8-3.6-8-8v-87.4c0-28.5 23.2-51.7 51.7-51.7h535.3c28.5 0 51.7 23.2 51.7 51.7v87.4c0 4.4-3.5 8-8 8z m-614.7-16h606.7v-79.4c0-19.7-16-35.7-35.7-35.7H199.5c-19.7 0-35.7 16-35.7 35.7v79.4z" fill="#4F0F00" /><path d="M735.7 690.9m-136.6 0a136.6 136.6 0 1 0 273.2 0 136.6 136.6 0 1 0-273.2 0Z" fill="#FFC41D" /><path d="M735.7 835.5c-79.7 0-144.6-64.9-144.6-144.6S656 546.4 735.7 546.4 880.3 611.3 880.3 691s-64.9 144.5-144.6 144.5z m0-273.1c-70.9 0-128.6 57.7-128.6 128.6s57.7 128.6 128.6 128.6S864.3 761.9 864.3 691s-57.7-128.6-128.6-128.6z" fill="#4F0F00" /><path d="M735 696.6c-2.1 0-4.2-0.8-5.7-2.3l-63.7-63.7c-3.1-3.1-3.1-8.2 0-11.3 3.1-3.1 8.2-3.1 11.3 0l58 58 62.7-62.7c3.1-3.1 8.2-3.1 11.3 0 3.1 3.1 3.1 8.2 0 11.3l-68.4 68.4c-1.4 1.4-3.4 2.3-5.5 2.3z" fill="#4F0F00" /><path d="M735.7 690.9m-19.7 0a19.7 19.7 0 1 0 39.4 0 19.7 19.7 0 1 0-39.4 0Z" fill="#FC5B5B" /><path d="M735.7 718.6c-15.3 0-27.7-12.4-27.7-27.7s12.4-27.7 27.7-27.7 27.7 12.4 27.7 27.7-12.5 27.7-27.7 27.7z m0-39.3c-6.4 0-11.7 5.2-11.7 11.7s5.2 11.7 11.7 11.7 11.7-5.2 11.7-11.7-5.3-11.7-11.7-11.7z" fill="#4F0F00" /><path d="M362.1 468.3m-22.9 0a22.9 22.9 0 1 0 45.8 0 22.9 22.9 0 1 0-45.8 0Z" fill="#FFC41D" /><path d="M362.1 499.3c-17.1 0-30.9-13.9-30.9-30.9s13.9-30.9 30.9-30.9 30.9 13.9 30.9 30.9-13.8 30.9-30.9 30.9z m0-45.9c-8.2 0-14.9 6.7-14.9 14.9s6.7 14.9 14.9 14.9 14.9-6.7 14.9-14.9-6.7-14.9-14.9-14.9z" fill="#4F0F00" /><path d="M461 468.3m-22.9 0a22.9 22.9 0 1 0 45.8 0 22.9 22.9 0 1 0-45.8 0Z" fill="#FFC41D" /><path d="M461 499.3c-17.1 0-30.9-13.9-30.9-30.9s13.9-30.9 30.9-30.9 30.9 13.9 30.9 30.9-13.8 30.9-30.9 30.9z m0-45.9c-8.2 0-14.9 6.7-14.9 14.9s6.7 14.9 14.9 14.9 14.9-6.7 14.9-14.9-6.6-14.9-14.9-14.9z" fill="#4F0F00" /><path d="M560 468.3m-22.9 0a22.9 22.9 0 1 0 45.8 0 22.9 22.9 0 1 0-45.8 0Z" fill="#FFC41D" /><path d="M560 499.3c-17.1 0-30.9-13.9-30.9-30.9s13.9-30.9 30.9-30.9c17.1 0 30.9 13.9 30.9 30.9s-13.8 30.9-30.9 30.9z m0-45.9c-8.2 0-14.9 6.7-14.9 14.9s6.7 14.9 14.9 14.9 14.9-6.7 14.9-14.9-6.7-14.9-14.9-14.9z" fill="#4F0F00" /><path d="M659 468.3m-22.9 0a22.9 22.9 0 1 0 45.8 0 22.9 22.9 0 1 0-45.8 0Z" fill="#FFC41D" /><path d="M659 499.3c-17.1 0-30.9-13.9-30.9-30.9s13.9-30.9 30.9-30.9c17.1 0 30.9 13.9 30.9 30.9S676 499.3 659 499.3z m0-45.9c-8.2 0-14.9 6.7-14.9 14.9s6.7 14.9 14.9 14.9 14.9-6.7 14.9-14.9-6.7-14.9-14.9-14.9z" fill="#4F0F00" /><path d="M272 575m-22.9 0a22.9 22.9 0 1 0 45.8 0 22.9 22.9 0 1 0-45.8 0Z" fill="#FFC41D" /><path d="M272 606c-17.1 0-30.9-13.9-30.9-30.9 0-17.1 13.9-30.9 30.9-30.9s31 13.8 31 30.8c0 17.1-13.9 31-31 31z m0-45.9c-8.2 0-14.9 6.7-14.9 14.9s6.7 14.9 14.9 14.9 15-6.6 15-14.9c0-8.2-6.7-14.9-15-14.9z" fill="#4F0F00" /><path d="M371 575m-22.9 0a22.9 22.9 0 1 0 45.8 0 22.9 22.9 0 1 0-45.8 0Z" fill="#FFC41D" /><path d="M371 606c-17.1 0-30.9-13.9-30.9-30.9 0-17.1 13.9-30.9 30.9-30.9s30.9 13.9 30.9 30.9S388.1 606 371 606z m0-45.9c-8.2 0-14.9 6.7-14.9 14.9s6.7 14.9 14.9 14.9 14.9-6.7 14.9-14.9-6.7-14.9-14.9-14.9z" fill="#4F0F00" /><path d="M469.9 575m-22.9 0a22.9 22.9 0 1 0 45.8 0 22.9 22.9 0 1 0-45.8 0Z" fill="#FFC41D" /><path d="M469.9 606c-17.1 0-30.9-13.9-30.9-30.9 0-17.1 13.9-30.9 30.9-30.9s30.9 13.9 30.9 30.9c0.1 17-13.8 30.9-30.9 30.9z m0-45.9c-8.2 0-14.9 6.7-14.9 14.9s6.7 14.9 14.9 14.9 14.9-6.7 14.9-14.9c0.1-8.2-6.6-14.9-14.9-14.9z" fill="#4F0F00" /><path d="M568.9 575m-22.9 0a22.9 22.9 0 1 0 45.8 0 22.9 22.9 0 1 0-45.8 0Z" fill="#FFC41D" /><path d="M568.9 606c-17.1 0-30.9-13.9-30.9-30.9 0-17.1 13.9-30.9 30.9-30.9 17.1 0 30.9 13.9 30.9 30.9S586 606 568.9 606z m0-45.9c-8.2 0-14.9 6.7-14.9 14.9s6.7 14.9 14.9 14.9 14.9-6.7 14.9-14.9-6.7-14.9-14.9-14.9z" fill="#4F0F00" /><path d="M272 681.8m-22.9 0a22.9 22.9 0 1 0 45.8 0 22.9 22.9 0 1 0-45.8 0Z" fill="#FFC41D" /><path d="M272 712.7c-17.1 0-30.9-13.9-30.9-30.9 0-17.1 13.9-30.9 30.9-30.9s30.9 13.9 30.9 30.9c0.1 17-13.8 30.9-30.9 30.9z m0-45.9c-8.2 0-14.9 6.7-14.9 14.9s6.7 14.9 14.9 14.9 15-6.6 15-14.8c0-8.3-6.7-15-15-15z" fill="#4F0F00" /><path d="M371 681.8m-22.9 0a22.9 22.9 0 1 0 45.8 0 22.9 22.9 0 1 0-45.8 0Z" fill="#FFC41D" /><path d="M371 712.7c-17.1 0-30.9-13.9-30.9-30.9 0-17.1 13.9-30.9 30.9-30.9s30.9 13.9 30.9 30.9-13.8 30.9-30.9 30.9z m0-45.9c-8.2 0-14.9 6.7-14.9 14.9s6.7 14.9 14.9 14.9 14.9-6.7 14.9-14.9-6.7-14.9-14.9-14.9z" fill="#4F0F00" /><path d="M469.9 681.8m-22.9 0a22.9 22.9 0 1 0 45.8 0 22.9 22.9 0 1 0-45.8 0Z" fill="#FFC41D" /><path d="M469.9 712.7c-17.1 0-30.9-13.9-30.9-30.9 0-17.1 13.9-30.9 30.9-30.9s30.9 13.9 30.9 30.9c0.1 17-13.8 30.9-30.9 30.9z m0-45.9c-8.2 0-14.9 6.7-14.9 14.9s6.7 14.9 14.9 14.9 14.9-6.7 14.9-14.9c0.1-8.2-6.6-14.9-14.9-14.9z" fill="#4F0F00" /><path d="M735.7 690.9m-136.6 0a136.6 136.6 0 1 0 273.2 0 136.6 136.6 0 1 0-273.2 0Z" fill="#FFC41D" /><path d="M735.7 835.5c-79.7 0-144.6-64.9-144.6-144.6S656 546.4 735.7 546.4 880.3 611.3 880.3 691s-64.9 144.5-144.6 144.5z m0-273.1c-70.9 0-128.6 57.7-128.6 128.6s57.7 128.6 128.6 128.6S864.3 761.9 864.3 691s-57.7-128.6-128.6-128.6z" fill="#4F0F00" /><path d="M735 696.6c-2.1 0-4.2-0.8-5.7-2.3l-63.7-63.7c-3.1-3.1-3.1-8.2 0-11.3 3.1-3.1 8.2-3.1 11.3 0l58 58 62.7-62.7c3.1-3.1 8.2-3.1 11.3 0 3.1 3.1 3.1 8.2 0 11.3l-68.4 68.4c-1.4 1.4-3.4 2.3-5.5 2.3z" fill="#4F0F00" /><path d="M735.7 690.9m-19.7 0a19.7 19.7 0 1 0 39.4 0 19.7 19.7 0 1 0-39.4 0Z" fill="#FC5B5B" /><path d="M735.7 718.6c-15.3 0-27.7-12.4-27.7-27.7s12.4-27.7 27.7-27.7 27.7 12.4 27.7 27.7-12.5 27.7-27.7 27.7z m0-39.3c-6.4 0-11.7 5.2-11.7 11.7s5.2 11.7 11.7 11.7 11.7-5.2 11.7-11.7-5.3-11.7-11.7-11.7z" fill="#4F0F00" /><path d="M280.4 299c-10.9 0-19.7-8.8-19.7-19.7v-59c0-10.9 8.8-19.7 19.7-19.7 10.9 0 19.7 8.8 19.7 19.7v59c-0.1 10.9-8.9 19.7-19.7 19.7z" fill="#FC5B5B" /><path d="M280.4 307c-15.3 0-27.7-12.4-27.7-27.7v-59c0-15.3 12.4-27.7 27.7-27.7s27.7 12.4 27.7 27.7v59c-0.1 15.3-12.5 27.7-27.7 27.7z m0-98.4c-6.4 0-11.7 5.2-11.7 11.7v59c0 6.4 5.2 11.7 11.7 11.7s11.7-5.2 11.7-11.7v-59c-0.1-6.4-5.3-11.7-11.7-11.7z" fill="#4F0F00" /><path d="M467.2 299c-10.9 0-19.7-8.8-19.7-19.7v-59c0-10.9 8.8-19.7 19.7-19.7 10.9 0 19.7 8.8 19.7 19.7v59c-0.1 10.9-8.9 19.7-19.7 19.7z" fill="#FC5B5B" /><path d="M467.2 307c-15.3 0-27.7-12.4-27.7-27.7v-59c0-15.3 12.4-27.7 27.7-27.7 15.3 0 27.7 12.4 27.7 27.7v59c-0.1 15.3-12.5 27.7-27.7 27.7z m0-98.4c-6.4 0-11.7 5.2-11.7 11.7v59c0 6.4 5.2 11.7 11.7 11.7 6.4 0 11.7-5.2 11.7-11.7v-59c-0.1-6.4-5.3-11.7-11.7-11.7z" fill="#4F0F00" /><path d="M653.9 299c-10.9 0-19.7-8.8-19.7-19.7v-59c0-10.9 8.8-19.7 19.7-19.7 10.9 0 19.7 8.8 19.7 19.7v59c0 10.9-8.8 19.7-19.7 19.7z" fill="#FC5B5B" /><path d="M653.9 307c-15.3 0-27.7-12.4-27.7-27.7v-59c0-15.3 12.4-27.7 27.7-27.7s27.7 12.4 27.7 27.7v59c0 15.3-12.4 27.7-27.7 27.7z m0-98.4c-6.4 0-11.7 5.2-11.7 11.7v59c0 6.4 5.2 11.7 11.7 11.7 6.4 0 11.7-5.2 11.7-11.7v-59c0-6.4-5.2-11.7-11.7-11.7z" fill="#4F0F00" /></svg>